<svg xmlns="http://www.w3.org/2000/svg" width="61" height="20" fill="none" viewBox="0 0 61 20">
  <path fill="#333" d="M9.944.5c.163.202.246.475.412 1.02l3.63 11.923a15.102 15.102 0 0 0-4.34-1.469L7.283 3.988a.308.308 0 0 0-.59.001l-2.334 7.98c-1.546.27-3.011.774-4.359 1.472L3.647 1.518c.167-.545.25-.817.413-1.02a1.34 1.34 0 0 1 .543-.401C4.844 0 5.13 0 5.7 0h2.605c.57 0 .855 0 1.096.097.213.086.4.224.544.403Zm.434 13.51c-.598.512-1.792.86-3.168.86-1.688 0-3.103-.525-3.479-1.232-.134.406-.164.87-.164 1.165 0 0-.089 1.455.923 2.466a.95.95 0 0 1 .951-.95c.9 0 .9.785.899 1.422v.057c0 .967.59 1.796 1.431 2.146a1.95 1.95 0 0 1-.196-.855c0-.922.542-1.266 1.171-1.665.501-.318 1.058-.67 1.441-1.379a2.6 2.6 0 0 0 .191-2.035Zm11.94-.753c1.518 0 2.656-.54 3.123-1.46 0 .438.03.89.102 1.24h2.496l-.007-.03c-.11-.504-.166-1.185-.168-2.072V8.659c0-2.131-1.255-3.139-4.043-3.139-2.438 0-4.072 1.008-4.262 2.657h2.598c.088-.715.686-1.11 1.664-1.11.963 0 1.503.395 1.503 1.212v.22l-2.642.233c-1.271.13-2 .346-2.51.69l-.015.01c-.54.365-.817.92-.817 1.606 0 1.372 1.138 2.219 2.978 2.219Zm.963-1.518c-.847 0-1.357-.336-1.357-.876 0-.555.423-.847 1.488-.978l1.956-.205v.438c0 .978-.846 1.62-2.087 1.62Zm10.023 1.518c2.54 0 3.839-.95 3.839-2.482 0-1.27-.73-1.97-2.496-2.204l-2.204-.248c-.628-.088-.89-.248-.89-.599 0-.423.423-.613 1.386-.613 1.328 0 2.248.307 2.992.905l1.183-1.182c-.818-.847-2.233-1.314-3.985-1.314-2.467 0-3.84.876-3.84 2.35 0 1.285.847 2 2.599 2.234l1.985.233c.788.102 1.022.248 1.022.628 0 .438-.438.671-1.46.671-1.518 0-2.54-.408-3.226-1.167l-1.342 1.109c.89 1.11 2.408 1.679 4.437 1.679Zm5.9-5.868v3.08c0 1.81 1.021 2.73 3.211 2.73.672 0 1.197-.074 1.693-.22v-1.897l-.042.009a4.395 4.395 0 0 1-.965.107c-.92 0-1.372-.408-1.372-1.27v-2.54h2.394V5.74h-2.394V3.07l-2.525.933V5.74h-1.635v1.65h1.635Zm8.544-1.65h-2.306v7.299h2.525v-2.73c0-.788.175-1.503.657-1.956.38-.35.92-.54 1.679-.54.277 0 .496.03.744.058V5.58c-.16-.03-.277-.03-.481-.03-1.446 0-2.424.833-2.818 2.19v-2Zm8.29 7.518c2.67 0 4.554-1.416 4.554-3.883 0-2.452-1.883-3.854-4.555-3.854-2.685 0-4.569 1.402-4.569 3.854 0 2.467 1.883 3.883 4.57 3.883Zm0-1.679c-1.227 0-2-.788-2-2.204 0-1.416.773-2.175 2-2.175 1.21 0 1.985.759 1.985 2.175s-.774 2.204-1.986 2.204Z"/>
</svg>
