<svg xmlns="http://www.w3.org/2000/svg" width="76" height="20" fill="none" viewBox="0 0 76 20">
  <path fill="#232324" d="m29.493 17.067-2.805-8.27h1.936l1.7 5.562 1.84-5.583h1.546l1.85 5.583 1.706-5.561h1.883l-2.8 8.27h-1.572l-1.856-5.375-1.85 5.374h-1.578Zm13.127.08c-1.952 0-3.391-1.44-3.391-3.247v-.021c0-1.813 1.455-3.274 3.412-3.274 1.946 0 3.391 1.44 3.391 3.253v.021c0 1.802-1.455 3.268-3.412 3.268Zm.021-1.535c1.019 0 1.632-.784 1.632-1.712v-.021c0-.928-.672-1.738-1.653-1.738-1.024 0-1.632.784-1.632 1.711v.027c0 .922.667 1.733 1.653 1.733Zm4.681 1.397v-6.292h1.781v1.27c.363-.865.95-1.43 2.005-1.387v1.866h-.085c-1.184 0-1.914.72-1.914 2.218v2.325h-1.787Zm4.906 0V8.446h1.78v4.564l2.085-2.293h2.133l-2.389 2.48 2.475 3.812h-2.043l-1.642-2.57-.618.656v1.914h-1.787.006Zm9.63.138c-1.893 0-3.285-1.322-3.285-3.247v-.021c0-1.797 1.28-3.274 3.108-3.274 2.096 0 3.06 1.632 3.06 3.413 0 .138-.01.303-.026.469h-4.372c.176.81.736 1.232 1.536 1.232.597 0 1.034-.187 1.525-.646l1.018.907a3.146 3.146 0 0 1-2.565 1.173v-.006Zm-1.542-3.775h2.688c-.107-.8-.576-1.333-1.323-1.333-.74 0-1.226.523-1.365 1.333Zm5.748 3.637v-6.292h1.786v1.27c.363-.865.95-1.43 2.005-1.387v1.866h-.096c-1.183 0-1.909.72-1.909 2.218v2.325h-1.79.005Zm7.113.117c-.88 0-1.866-.293-2.698-.949l.762-1.173a3.557 3.557 0 0 0 1.979.747c.517 0 .751-.187.751-.464v-.027c0-.384-.608-.517-1.3-.725-.88-.261-1.877-.672-1.877-1.888v-.026c0-1.28 1.034-1.995 2.298-1.995.8 0 1.668.267 2.346.731l-.678 1.226a3.727 3.727 0 0 0-1.706-.586c-.426 0-.656.192-.656.437v.021c0 .352.603.518 1.28.752.88.293 1.904.715 1.904 1.866v.022c0 1.397-1.045 2.031-2.405 2.031Z"/>
  <path fill="#656566" d="M30.66 3.53h.832v2.244h1.456v.72h-2.293V3.53h.005Zm3.14 1.493v-.011c0-.853.694-1.546 1.616-1.546A1.546 1.546 0 0 1 37.016 5v.011c0 .853-.693 1.54-1.61 1.54A1.546 1.546 0 0 1 33.8 5.018v.006Zm2.379 0v-.011c0-.427-.31-.8-.768-.8-.453 0-.757.363-.757.795v.005c0 .427.31.8.762.8.459 0 .763-.363.763-.795v.006Zm1.86.17V3.53h.843v1.653c0 .426.219.623.55.623.33 0 .548-.191.548-.607v-1.67h.843v1.643c0 .96-.55 1.376-1.402 1.376-.853 0-1.387-.427-1.387-1.355h.006Zm4.053-1.663h1.152c1.066 0 1.69.608 1.69 1.466v.01c0 .854-.63 1.494-1.706 1.494h-1.136V3.524v.006Zm1.173 2.24c.49 0 .821-.273.821-.758 0-.48-.33-.752-.826-.752h-.336v1.498h.336v.006l.005.005Zm2.88-2.24h2.393v.72h-1.567v.506h1.418v.683H46.97v1.055h-.827V3.53Zm3.545 0h.826v2.244h1.45v.72H49.69V3.53Zm4.441-.022h.8l1.28 2.986h-.896l-.213-.528h-1.157l-.214.534h-.869l1.27-2.992Zm.73 1.819-.33-.843-.336.843h.667Zm2.41-1.797h1.42c.458 0 .772.117.975.32.176.17.267.4.267.693v.01c0 .459-.246.758-.614.907l.715 1.045h-.96l-.608-.896h-.362v.896h-.832V3.53Zm1.382 1.423c.282 0 .442-.138.442-.352v-.01c0-.23-.17-.347-.447-.347h-.55v.71h.555Zm2.474-1.423h2.4v.693h-1.574v.453h1.434v.65h-1.44v.47h1.611v.698h-2.426V3.53h-.005ZM28.842 5.37a.736.736 0 0 1-.682.442c-.454 0-.763-.373-.763-.8 0-.427.304-.8.757-.8a.746.746 0 0 1 .71.496h.884a1.557 1.557 0 0 0-1.578-1.232c-.922 0-1.615.694-1.615 1.547v.005a1.547 1.547 0 0 0 1.605 1.536c.789 0 1.407-.507 1.567-1.184l-.874-.005-.01-.006Z"/>
  <path fill="#333" d="M5.702.288 8.314 5 5.915 9.32a1.382 1.382 0 0 0 0 1.348l2.4 4.33-2.613 4.713a2.773 2.773 0 0 1-1.173-1.104l-4.16-7.224a2.783 2.783 0 0 1 0-2.773l4.16-7.225A2.773 2.773 0 0 1 5.702.288Z"/>
  <path fill="#333" d="M5.915 9.325a1.386 1.386 0 0 0 0 1.344l2.4 4.33-2.613 4.713a2.773 2.773 0 0 1-1.173-1.104l-4.16-7.224c-.33-.57 1.52-1.253 5.546-2.053v-.005Z" opacity=".7"/>
  <path fill="#333" d="m5.968.762 2.347 4.24-.39.676-2.069-3.503C5.26 1.2 4.348 1.706 3.206 3.68l.171-.293 1.152-2A2.773 2.773 0 0 1 5.69.288l.272.474h.005Z" opacity=".5"/>
  <path fill="#333" d="m17.645 1.386 4.16 7.225a2.77 2.77 0 0 1 0 2.773l-4.16 7.224a2.773 2.773 0 0 1-2.4 1.387h-4.158l5.172-9.326a1.387 1.387 0 0 0 0-1.343L11.087 0h4.159c.99 0 1.904.529 2.4 1.386Z"/>
  <path fill="#333" d="M15.032 19.963 10.927 20l4.97-9.373a1.44 1.44 0 0 0 0-1.355L10.926 0h.938l5.215 9.23c.251.443.25.987-.005 1.428a835.493 835.493 0 0 0-3.344 5.866c-1.013 1.78-.575 2.927 1.301 3.439Z"/>
  <path fill="#333" d="M6.928 19.995c-.427 0-.853-.102-1.226-.283l5.129-9.25a.957.957 0 0 0 0-.929L5.701.288A2.776 2.776 0 0 1 6.929 0h4.159l5.172 9.326c.231.417.231.925 0 1.343l-5.172 9.326h-4.16Z"/>
  <path fill="#fff" d="M15.896 9.533 10.606 0h.48l5.173 9.326c.231.417.231.925 0 1.343l-5.172 9.326h-.48l5.29-9.534a.957.957 0 0 0 0-.928Z" opacity=".6"/>
  <path fill="#fff" d="M10.831 9.533 5.701.288a2.9 2.9 0 0 1 .534-.203c1.13 2.032 2.8 5.114 5.012 9.24a1.39 1.39 0 0 1 0 1.344l-5.092 9.219a2.669 2.669 0 0 1-.448-.17l5.119-9.251a.957.957 0 0 0 0-.928l.005-.006Z" opacity=".6"/>
</svg>
