<svg xmlns="http://www.w3.org/2000/svg" width="49" height="20" fill="none" viewBox="0 0 49 20">
  <path fill="#333" d="M21.136 4.83h7.916v3.31h-4.606v3.31h4.606v3.31h-7.916V4.83Zm9.499 0h7.916v2.878h-4.606v.576h4.606v6.62h-7.916v-3.022h4.605v-.576h-4.605V4.829Zm9.499 0h7.916v2.878h-4.606v.576h4.606v6.62h-7.916v-3.022h4.605v-.576h-4.605V4.829ZM16.028 17.998 8.807 20l-7.202-2L0 0h17.635l-1.607 17.998Z"/>
  <path fill="#1E1E1E" d="m8.817 18.47 5.836-1.618 1.373-15.38H8.817V18.47Z"/>
  <path fill="#EBEBEB" d="M8.818 8.148H3.679l.198 2.208h4.94V8.148ZM8.81 3.68H3.282l.2 2.207h5.336V3.68H8.81Zm-.002 10.204-2.459-.664-.157-1.76H3.976l.309 3.466 4.522 1.255.01-.002v-2.297l-.01.002Z"/>
  <path fill="#fff" d="m11.921 5.887-.2 2.261H8.81v2.208h2.718l-.257 2.863-2.462.665v2.296l4.526-1.254.033-.373.519-5.812.054-.593.398-4.468H8.81v2.207h3.111Z"/>
</svg>
