<svg xmlns="http://www.w3.org/2000/svg" width="60" height="20" fill="none" viewBox="0 0 60 20">
  <path fill="#333" d="M0 5.248h3.177v3.138h2.906V5.248H9.26v9.504H6.083v-3.177H3.177v3.177H0V5.248ZM13.438 8.4h-2.803V5.25h8.772V8.4h-2.798v6.353H13.43V8.4h.007Zm7.361-3.152h3.313l2.038 3.345 2.036-3.345h3.308v9.504H28.33v-4.711l-2.185 3.38h-.055l-2.177-3.38v4.711h-3.108l-.006-9.504Zm12.28 0h3.177v6.369h4.468v3.141H33.08v-9.51ZM42.235 0H59.87l-1.606 17.998L51.042 20l-7.201-2-1.606-18Z"/>
  <path fill="#1E1E1E" d="m56.89 16.852 1.373-15.38h-7.204V18.47l5.83-1.618Z"/>
  <path fill="#EBEBEB" d="m48.133 8.148-.202-2.26h3.128V3.68h-5.535l.595 6.676h4.94V8.15h-2.926Zm-1.921 3.312.31 3.467 4.521 1.256.01-.003v-2.296l-.009.002-2.453-.669-.157-1.761H47.24l-1.028.004Z"/>
  <path fill="#fff" d="m56.124 8.74.054-.593h-5.132v2.207h2.719l-.257 2.864-2.462.664v2.297l4.527-1.254.033-.374.518-5.81ZM51.05 5.887h5.333l.198-2.213h-5.53v2.213Z"/>
</svg>
