<svg xmlns="http://www.w3.org/2000/svg" width="20" height="20" fill="none" viewBox="0 0 20 20">
  <path fill="#333" d="M11.9 16.5c.56 1.1 1.68 1.94 3.42 1.94 1.8 0 3.12-.94 3.12-2.62 0-1.58-.9-2.28-2.5-2.96l-.46-.2c-.8-.36-1.16-.58-1.16-1.14 0-.46.36-.8.9-.8s.88.22 1.2.8l1.48-.94c-.62-1.1-1.48-1.5-2.68-1.5-1.68 0-2.76 1.06-2.76 2.48 0 1.52.9 2.26 2.26 2.82l.48.2c.86.38 1.36.62 1.36 1.26 0 .54-.5.92-1.28.92-.92 0-1.44-.48-1.84-1.14l-1.54.88Zm-6.64.22c.44.94 1.32 1.72 2.82 1.72 1.66 0 2.8-.9 2.8-2.84V9.18H9v6.38c0 .94-.38 1.2-1 1.2-.64 0-.92-.46-1.2-.98l-1.54.94ZM0 0h20v20H0V0Z"/>
</svg>
