<svg xmlns="http://www.w3.org/2000/svg" width="512" height="99" fill="none" viewBox="0 0 512 99">
  <g clip-path="url(#a)">
    <path fill="#333" d="M253.816 26.412c12.69 0 20.004 9.705 20.004 22.587 0 13.146-8.195 22.852-20.444 22.852-5.863 0-10.208-2.28-12.373-5.105l-.141-.19v21h-11.72V27.382h11.368v5.294c1.939-3.353 6.786-6.264 13.306-6.264Zm-102.928-.353c8.583 0 13.199 3.8 15.392 7.687l.199.365.184.364c.06.122.117.243.171.364l.158.362.145.36.131.357.062.177.113.351.101.347.089.341.04.169.072.332.061.326.05.317.04.31-9.782 2.205c-.352-2.559-2.203-5.823-7.138-5.823-3.084 0-5.552 1.853-5.552 4.323 0 2.052 1.489 3.358 3.745 3.839l.22.044 6.17 1.323c8.548 1.765 12.866 6.97 12.866 13.323 0 7.058-5.464 14.293-16.832 14.293-8.559 0-13.437-3.648-15.929-7.552l-.23-.372a17.66 17.66 0 0 1-.216-.374l-.202-.373c-.097-.187-.19-.374-.277-.56l-.168-.371a15.887 15.887 0 0 1-.156-.37l-.142-.367-.13-.363-.06-.18-.111-.357-.1-.352-.088-.347-.076-.34-.065-.334-.054-.326-.044-.317-.018-.156 10.047-2.206c.263 3.441 2.82 6.618 7.931 6.618 3.878 0 5.728-2.03 5.728-4.324 0-1.887-1.25-3.44-4.396-4.174l-.275-.06-5.728-1.324c-8.372-1.853-12.161-6.882-12.161-12.97 0-7.764 6.874-14.205 16.215-14.205Zm294.844 0c8.448 0 13.053 3.682 15.287 7.505l.205.364c.199.365.376.73.534 1.092l.151.361.138.358c.066.179.127.356.184.532l.107.35.049.172.089.341.041.169.072.332.032.164.055.321.024.158.04.31-9.781 2.205-.048-.298a7.426 7.426 0 0 0-.18-.764l-.098-.31c-.761-2.219-2.732-4.45-6.814-4.45-3.085 0-5.551 1.852-5.551 4.322 0 2.052 1.488 3.358 3.743 3.839l.221.044 6.17 1.323c8.548 1.765 12.865 6.97 12.865 13.323 0 7.058-5.463 14.293-16.831 14.293-8.423 0-13.281-3.533-15.808-7.366l-.237-.372-.223-.373-.209-.374-.195-.373a13.433 13.433 0 0 1-.268-.559l-.161-.37-.149-.369-.07-.183-.129-.363-.118-.36-.105-.354-.049-.175-.087-.347-.077-.34-.065-.334-.054-.326-.043-.317-.018-.156 10.046-2.206c.265 3.441 2.819 6.618 7.931 6.618 3.878 0 5.729-2.03 5.729-4.324 0-1.887-1.249-3.44-4.397-4.174l-.274-.06-5.728-1.324c-8.373-1.853-12.161-6.882-12.161-12.97 0-7.764 6.872-14.205 16.215-14.205Zm44.854 0c13.396 0 21.414 8.558 21.414 22.498l-.007.605-.018.595-.027.567-.061.984-.061.838-.001.03h-31.02c.263 5.734 5.11 9.88 10.927 9.88 5.355 0 8.339-2.626 9.784-6.385l.087-.231 9.782 2.911c-2.204 7.5-9.078 13.764-19.741 13.764-11.898 0-22.385-8.558-22.385-23.204 0-13.853 10.224-22.852 21.327-22.852Zm-190.652 0c13.059 0 18.326 7.007 18.82 15.197l.025.519c.006.173.01.347.012.521l.002.262.001 21.67.013.658.023.683.034.695.02.349.047.693.054.68.06.654.064.618.068.572.071.515.036.233.036.214h-10.751c-.202-.877-.353-2.477-.413-3.93l-.021-.658c-.005-.214-.007-.42-.007-.618-2.203 3.441-6.345 6.441-12.777 6.441-9.254 0-14.893-6.264-14.893-13.058 0-7.654 5.566-11.964 12.646-13.1l.308-.047 10.663-1.588c2.469-.353 3.261-1.588 3.261-3.088 0-3.088-2.379-5.647-7.316-5.647-5.015 0-7.825 3.145-8.261 6.849l-.022.21-10.398-2.206c.704-6.794 6.962-14.293 18.595-14.293Zm101.465 0c13.06 0 18.326 7.007 18.82 15.197l.025.519c.006.173.011.347.013.521l.001.262.002 21.67.012.658.024.683.016.346.038.698.023.348.05.688.057.668.063.637c.011.104.021.205.033.304l.068.572c.034.273.07.524.106.748l.036.214h-10.752c-.139-.608-.255-1.561-.332-2.573l-.046-.68-.019-.34-.028-.67c-.01-.33-.016-.647-.016-.943-2.201 3.441-6.345 6.441-12.777 6.441-9.253 0-14.893-6.264-14.893-13.058 0-7.654 5.566-11.964 12.646-13.1l.309-.047 10.662-1.588c2.468-.353 3.261-1.588 3.261-3.088 0-3.088-2.379-5.647-7.315-5.647-5.015 0-7.825 3.145-8.262 6.849l-.022.21-10.397-2.206c.704-6.794 6.961-14.293 18.594-14.293Zm-212.614 1.323V52.44c0 4.852 2.468 8.735 7.931 8.735 5.11 0 8.091-3.409 8.193-8.3l.002-.259V27.382h11.722V62.94c0 .248.001.495.004.739l.012.724.019.707.025.688.048.987.036.625.061.88.065.804.088.937.063.589.02.173h-11.192l-.028-.149-.055-.35a16.826 16.826 0 0 1-.053-.41l-.05-.463-.024-.248-.043-.52-.037-.549-.029-.565-.012-.286-.016-.572c-.003-.19-.005-.379-.005-.565-2.379 4.06-7.405 5.824-11.987 5.824-10.374 0-16.35-7.512-16.477-16.813l-.002-.304v-27.44h11.721Zm153.366-20.47v25.235c1.939-3.088 6.697-5.912 13.131-5.912 12.69 0 20.005 9.794 20.005 22.676 0 13.146-8.107 22.94-20.446 22.94-5.868 0-10.384-2.538-12.72-6.123l-.146-.23v5.294h-11.368V6.912h11.544Zm-34.815 46.322v-1.941l-9.782 1.5c-2.997.44-5.376 2.117-5.376 5.47 0 2.559 1.851 5.03 5.64 5.03 4.864 0 9.385-2.315 9.515-9.729l.003-.33Zm101.465 0v-1.941l-9.781 1.5c-2.998.44-5.377 2.117-5.377 5.47 0 2.559 1.852 5.03 5.641 5.03 4.863 0 9.384-2.315 9.514-9.729l.003-.33ZM251.525 36.91c-5.992 0-10.839 4.5-10.839 12.176s4.847 12.264 10.839 12.264c5.993 0 10.751-4.5 10.751-12.264 0-7.676-4.758-12.176-10.751-12.176Zm101.289-.176c-5.904 0-10.839 4.323-10.839 12.264 0 7.852 4.935 12.352 10.839 12.352 5.993 0 10.751-4.411 10.751-12.352 0-7.941-4.758-12.264-10.751-12.264Zm137.949-1.147c-5.978 0-9.316 4.434-9.679 8.356l-.016.202h19.389c-.176-4.323-2.997-8.558-9.694-8.558Z"/>
    <path fill="url(#b)" d="M56.175 97.096c-2.522 3.177-7.637 1.436-7.697-2.62l-.89-59.323h39.89c7.225 0 11.254 8.345 6.761 14.004l-38.064 47.94Z"/>
    <path fill="url(#c)" fill-opacity=".2" d="M56.175 97.096c-2.522 3.177-7.637 1.436-7.697-2.62l-.89-59.323h39.89c7.225 0 11.254 8.345 6.761 14.004l-38.064 47.94Z"/>
    <path fill="#404041" d="M39.953 1.64C42.475-1.535 47.59.205 47.65 4.26l.39 59.323H8.65c-7.225 0-11.254-8.344-6.762-14.003L39.953 1.64Z"/>
  </g>
  <defs>
    <linearGradient id="b" x1="1060.2" x2="3347.46" y1="1350.49" y2="2309.77" gradientUnits="userSpaceOnUse">
      <stop stop-color="#333"/>
      <stop offset="1" stop-color="#333"/>
    </linearGradient>
    <linearGradient id="c" x1="144.238" x2="1612.55" y1="-801.502" y2="1962.53" gradientUnits="userSpaceOnUse">
      <stop/>
      <stop offset="1" stop-opacity="0"/>
    </linearGradient>
    <clipPath id="a">
      <path fill="#fff" d="M0 0h512v99H0z"/>
    </clipPath>
  </defs>
</svg>
