<svg xmlns="http://www.w3.org/2000/svg" width="112" height="20" fill="none" viewBox="0 0 112 20">
  <g clip-path="url(#a)">
    <path fill="#838383" d="m93.259 15.259-2.985-5.546-1.879 2.273v3.273H86.82V4.652h1.576V9.79l4.091-5.137h1.818l-2.97 3.727 3.773 6.879h-1.85Zm5.257 0V4.652h1.576V15.26h-1.576Zm9.789-9.091v9.09h-1.576v-9.09h-3V4.652h7.576v1.516h-3Z"/>
    <path fill="#333" d="M26.566 15.44a4.281 4.281 0 0 1-2.439-.689 3.535 3.535 0 0 1-1.424-1.886l1.485-.546c.206.475.542.882.97 1.174.434.29.947.441 1.47.432.502.026.997-.124 1.4-.425.357-.298.55-.748.523-1.212a1.327 1.327 0 0 0-.144-.613 1.834 1.834 0 0 0-.325-.463 2.195 2.195 0 0 0-.561-.37 8.376 8.376 0 0 0-.629-.289 18.039 18.039 0 0 0-.735-.265 24.258 24.258 0 0 1-.909-.333 6.84 6.84 0 0 1-.795-.402 2.937 2.937 0 0 1-.743-.56 2.716 2.716 0 0 1-.447-.735 2.626 2.626 0 0 1 .712-2.985c.606-.535 1.429-.803 2.47-.803.868 0 1.583.192 2.143.575.545.362.944.904 1.13 1.531l-1.455.485a1.693 1.693 0 0 0-.705-.78 2.366 2.366 0 0 0-1.235-.296 1.904 1.904 0 0 0-1.19.333c-.288.224-.45.575-.431.94a.98.98 0 0 0 .333.727c.201.198.438.358.697.47.243.1.612.237 1.106.409.303.111.528.194.674.25.147.055.362.148.645.28.226.1.444.22.651.356.185.133.362.277.53.431.183.159.34.346.463.553.117.216.209.445.272.682.078.279.116.567.114.856 0 .99-.338 1.766-1.015 2.326-.677.56-1.546.841-2.606.843Zm9.713-.181L32.642 4.652h1.697l2.41 7.395c.133.397.244.802.333 1.212.088-.41.2-.815.333-1.212l2.379-7.395h1.682L37.854 15.26H36.28Zm8.409 0V4.652h6.576v1.485h-5v2.91h3.227v1.484h-3.227v3.243h5.334v1.485h-6.91Zm10.924 0V4.652h1.576v9.092h5.182v1.515h-6.758ZM68.31 6.168v9.09h-1.575v-9.09h-3V4.652h7.575v1.516h-3Zm6.258 9.09V4.653h6.576v1.485h-5v2.91h3.227v1.484h-3.227v3.243h5.334v1.485h-6.91ZM15.514 2.635C13.665-.012 10.013-.797 7.372.886L2.735 3.842A5.32 5.32 0 0 0 .33 7.406a5.603 5.603 0 0 0 .552 3.597 5.332 5.332 0 0 0-.795 1.989 5.67 5.67 0 0 0 .968 4.288c1.85 2.647 5.502 3.431 8.142 1.748l4.638-2.955a5.32 5.32 0 0 0 2.403-3.564 5.606 5.606 0 0 0-.552-3.598 5.332 5.332 0 0 0 .796-1.988 5.668 5.668 0 0 0-.969-4.288Z"/>
    <path fill="#fff" d="M6.919 17.529a3.684 3.684 0 0 1-3.954-1.466 3.41 3.41 0 0 1-.582-2.578 3.39 3.39 0 0 1 .11-.433l.088-.267.237.175a5.98 5.98 0 0 0 1.814.906l.172.053-.015.172a1.04 1.04 0 0 0 .187.69c.265.382.74.558 1.19.441.102-.027.197-.069.285-.124l4.638-2.957a.966.966 0 0 0 .436-.646 1.03 1.03 0 0 0-.176-.777 1.11 1.11 0 0 0-1.191-.442 1.02 1.02 0 0 0-.285.124l-1.77 1.129a3.384 3.384 0 0 1-.942.413 3.684 3.684 0 0 1-3.954-1.465 3.409 3.409 0 0 1-.582-2.579 3.2 3.2 0 0 1 1.447-2.142L8.709 2.8a3.38 3.38 0 0 1 .942-.414 3.684 3.684 0 0 1 3.954 1.466 3.41 3.41 0 0 1 .583 2.578 3.289 3.289 0 0 1-.112.434l-.087.266-.237-.174a5.977 5.977 0 0 0-1.814-.907l-.173-.052.016-.172a1.042 1.042 0 0 0-.187-.69 1.11 1.11 0 0 0-1.19-.441 1.02 1.02 0 0 0-.284.124L5.48 7.774a.965.965 0 0 0-.435.645 1.03 1.03 0 0 0 .175.778c.265.382.74.559 1.191.442.1-.027.197-.07.285-.125l1.77-1.127c.29-.186.608-.325.942-.414a3.684 3.684 0 0 1 3.953 1.464c.533.747.743 1.676.582 2.579a3.2 3.2 0 0 1-1.445 2.143L7.86 17.115a3.378 3.378 0 0 1-.942.414Z"/>
  </g>
  <defs>
    <clipPath id="a">
      <path fill="#fff" d="M0 0h111.304v20H0z"/>
    </clipPath>
  </defs>
</svg>
