<svg xmlns="http://www.w3.org/2000/svg" width="80" height="20" fill="none" viewBox="0 0 80 20">
  <path fill="#333" d="M15.723 2.869C13.96.345 10.473-.403 7.954 1.202L3.53 4.02a5.079 5.079 0 0 0-2.38 4.27 5.346 5.346 0 0 0 .612 2.554 4.958 4.958 0 0 0-.476.909 5.022 5.022 0 0 0-.283.987 5.424 5.424 0 0 0 .05 2.138 5.407 5.407 0 0 0 .875 1.952c1.764 2.523 5.25 3.27 7.769 1.667l4.425-2.807a5.088 5.088 0 0 0 2.293-3.391 5.343 5.343 0 0 0-.527-3.43 5.097 5.097 0 0 0 .76-1.897 5.427 5.427 0 0 0-.05-2.138 5.402 5.402 0 0 0-.875-1.952"/>
  <path fill="#fff" d="M7.522 17.074a3.517 3.517 0 0 1-3.773-1.399 3.263 3.263 0 0 1-.605-1.815 3.25 3.25 0 0 1 .095-.85 2.736 2.736 0 0 1 .06-.203l.083-.254.228.17a5.66 5.66 0 0 0 1.268.698c.15.06.303.113.457.16l.17.049-.016.17a1.025 1.025 0 0 0 .097.503 1.066 1.066 0 0 0 .905.602 1.054 1.054 0 0 0 .46-.081 1.02 1.02 0 0 0 .132-.07l4.418-2.818a.915.915 0 0 0 .415-.617.976.976 0 0 0-.17-.742 1.062 1.062 0 0 0-1.207-.398.881.881 0 0 0-.2.097l-1.697 1.076a3.246 3.246 0 0 1-.898.394 3.515 3.515 0 0 1-3.766-1.398 3.256 3.256 0 0 1-.552-2.458 3.048 3.048 0 0 1 1.38-2.046l4.431-2.818a2.992 2.992 0 0 1 .432-.23 3.101 3.101 0 0 1 .46-.163 3.518 3.518 0 0 1 3.773 1.399 3.248 3.248 0 0 1 .534 2.563 2.81 2.81 0 0 1-.083.308l-.085.254-.226-.17a5.686 5.686 0 0 0-1.73-.864l-.17-.05.015-.169a1 1 0 0 0-.401-.887 1.061 1.061 0 0 0-1.049-.13.99.99 0 0 0-.131.069L6.15 7.769a.93.93 0 0 0-.406 1.004 1.01 1.01 0 0 0 .38.585 1.056 1.056 0 0 0 1.048.14.905.905 0 0 0 .131-.069L9 8.354a3.324 3.324 0 0 1 .663-.323 3.518 3.518 0 0 1 3.274.552c.283.219.53.48.734.773a3.264 3.264 0 0 1 .605 1.815c.005.216-.011.432-.049.644a3.042 3.042 0 0 1-1.38 2.045l-4.425 2.82a3.169 3.169 0 0 1-.664.322 3.314 3.314 0 0 1-.235.073Z"/>
  <path fill="#333" d="M26.27 15.081a4.084 4.084 0 0 1-2.328-.656 3.366 3.366 0 0 1-1.358-1.799l1.414-.52a2.635 2.635 0 0 0 .636.89 2.43 2.43 0 0 0 1.691.64 2.081 2.081 0 0 0 1.035-.216 2.04 2.04 0 0 0 .303-.187 1.41 1.41 0 0 0 .498-1.156 1.259 1.259 0 0 0-.137-.585 1.691 1.691 0 0 0-.31-.442 2.261 2.261 0 0 0-.393-.281 7.894 7.894 0 0 0-.743-.348c-.16-.063-.393-.147-.7-.252-.387-.136-.68-.241-.869-.319a7.04 7.04 0 0 1-.574-.277 6.096 6.096 0 0 1-.185-.105 2.784 2.784 0 0 1-.709-.535 2.676 2.676 0 0 1-.424-.704 2.504 2.504 0 0 1 .679-2.847c.58-.51 1.365-.765 2.356-.765.83 0 1.513.182 2.047.548a2.67 2.67 0 0 1 .908 1.03c.069.138.125.281.169.43l-1.388.463a1.602 1.602 0 0 0-.28-.427 1.62 1.62 0 0 0-.399-.318 2.216 2.216 0 0 0-.87-.27 2.288 2.288 0 0 0-.305-.008 1.817 1.817 0 0 0-1.136.317 1.076 1.076 0 0 0-.393.642c-.016.084-.021.17-.017.255a.94.94 0 0 0 .317.694 2.168 2.168 0 0 0 .313.254c.111.075.23.14.353.194.23.096.583.225 1.055.39.288.106.509.184.643.239a15.208 15.208 0 0 1 .775.341 4.499 4.499 0 0 1 .462.264 5.448 5.448 0 0 1 .509.412 2.167 2.167 0 0 1 .44.527 2.882 2.882 0 0 1 .26.651 2.859 2.859 0 0 1 .103.61c.005.069.006.137.006.206 0 .945-.323 1.685-.969 2.218-.646.534-1.474.801-2.485.802Zm9.267-.17-3.47-10.118h1.618l2.3 7.051a10.925 10.925 0 0 1 .318 1.157 10.143 10.143 0 0 1 .227-.871c.028-.096.06-.191.09-.286l2.27-7.05h1.606L37.04 14.907l-1.503.004Zm8.023 0V4.794h6.278V6.21h-4.773v2.774h3.08V10.4h-3.08v3.087h5.09V14.9l-6.595.01Zm10.424 0V4.794h1.505v8.67h4.944v1.445l-6.449.004ZM66.1 6.242v8.667h-1.503v-8.67h-2.863V4.793h7.224v1.445l-2.858.003Zm5.972 8.67V4.794h6.278V6.21h-4.775v2.774h3.08V10.4h-3.08v3.087h5.09V14.9l-6.593.01Z"/>
</svg>
