<svg xmlns="http://www.w3.org/2000/svg" width="20" height="20" fill="none" viewBox="0 0 20 20">
  <path fill="#333" fill-rule="evenodd" d="M0 0v20h20V0H0Zm15.205 9.545c.19.001.405.011.567.03.66.072 1.174.364 1.611.912.218.273.293.393.277.444-.01.033-.16.143-.635.465-.467.317-.617.412-.652.412-.035 0-.109-.078-.215-.227-.205-.287-.414-.418-.737-.461-.348-.047-.66.065-.812.292-.13.193-.15.505-.046.732.12.263.337.408 1.17.782.962.43 1.449.726 1.804 1.092.382.394.575.85.635 1.494.029.314-.007.686-.094.988-.216.742-.797 1.285-1.649 1.54a3.158 3.158 0 0 1-.671.13c-.331.024-.805.01-1.09-.032-.721-.107-1.535-.537-1.941-1.023-.2-.24-.454-.633-.454-.702 0-.033.016-.052.08-.094.19-.123 1.279-.76 1.3-.76a.59.59 0 0 1 .127.152c.128.19.444.516.604.625.132.089.3.16.499.212.114.029.174.034.423.034.254 0 .306-.005.42-.036.301-.083.536-.254.635-.463.044-.09.045-.102.045-.322v-.227l-.053-.109c-.13-.263-.41-.443-1.292-.834-.405-.18-.902-.433-1.095-.559-.443-.287-.75-.616-.95-1.019-.2-.4-.23-.549-.231-1.15 0-.471-.001-.466.094-.766a2.26 2.26 0 0 1 .46-.79c.39-.424.96-.697 1.57-.751a3.15 3.15 0 0 1 .296-.01ZM9.955 10c1.163 0 1.83.005 1.84.011.02.013.023.114.023.762v.747l-1.16.004-1.16.004v3.303c0 1.817-.004 3.314-.009 3.327-.008.022-.097.024-.852.024h-.843l-.009-.034c-.006-.02-.01-1.516-.01-3.327v-3.293l-1.16-.004-1.16-.004v-.738c0-.586.004-.743.02-.758.015-.017.607-.02 3.158-.023h1.323Z" clip-rule="evenodd"/>
</svg>
