<svg xmlns="http://www.w3.org/2000/svg" width="64" height="16" fill="none" viewBox="0 0 64 16">
  <g clip-path="url(#a)">
    <path fill="#333" d="M20.541 6.257c0-1.141-1.11-2.353-3.03-2.353-2.156 0-4.525 1.581-4.887 4.737-.37 3.188 1.613 4.604 3.612 4.604 2 0 3.046-.779 4.116-1.818-.92-1.156-2.109-.621-2.337-.503-.252.126-.575.299-1.236.299-.771 0-1.558-.347-1.558-1.787 4.942-.488 5.32-2.038 5.32-3.18Zm-2.448.189c-.031.354-.173.96-2.675 1.298.527-1.873 1.534-2.015 1.999-2.015.432 0 .708.339.676.717Zm-8.373.307-1.15 3.612c-.03-.283-.81-6.273-.81-6.273-1.81 0-2.778 1.291-3.29 2.653l-1.4 3.628c-.009-.26-.197-3.589-.197-3.589C2.763 5.116 1.236 4.1 0 4.1l1.495 9.075c1.897-.008 2.92-1.291 3.455-2.653 0 0 1.141-2.95 1.189-3.085.008.126.818 5.738.818 5.738 1.905 0 2.928-1.205 3.479-2.519L13.104 4.1c-1.881 0-2.873 1.283-3.384 2.653Zm17.81-2.865c-1.173 0-2.07.637-2.826 1.574v-.008L25.381 0c-1.558 0-2.825 1.354-3.07 3.368l-1.18 9.736c.898 0 1.85-.26 2.361-.921.457.59 1.142 1.062 2.157 1.062 2.628 0 4.43-3.053 4.43-5.918-.015-2.613-1.282-3.44-2.55-3.44Zm-.244 4.683c-.276 1.597-1.165 2.683-2.023 2.683-.866 0-1.236-.385-1.236-.385.166-1.401.268-2.26.583-2.999.315-.74 1.062-1.92 1.842-1.92.763 0 1.11 1.015.834 2.62Zm9.357-4.47H34.81l.008-.095c.125-1.196.409-1.826 1.345-1.928.638-.063.921-.394.992-.756.055-.283.228-1.267.228-1.267-3.683-.024-4.84 1.566-5.139 3.99l-.008.055h-.04c-.597 0-1.258.677-1.369 1.535l-.039.315h1.228l-1.031 8.515-.315 1.527c.04 0 .086.008.126.008 1.723-.063 2.825-1.425 3.07-3.4l.802-6.65h.575c.566 0 1.227-.567 1.345-1.511l.055-.339Zm9.539-.158c-2.117 0-4.116 1.558-4.73 4.006-.614 2.447.315 5.344 3.431 5.344 3.11 0 4.903-3.015 4.903-5.525 0-2.495-1.692-3.825-3.604-3.825Zm.858 4.549c-.11 1.11-.598 2.794-1.936 2.794-1.346 0-1.157-1.968-1.023-2.904.141-1 .7-2.424 1.904-2.424 1.078 0 1.18 1.283 1.055 2.534Zm13.206-1.74-1.15 3.613c-.03-.283-.81-6.273-.81-6.273-1.81 0-2.778 1.291-3.29 2.653l-1.4 3.628c-.008-.26-.197-3.589-.197-3.589-.11-1.668-1.637-2.684-2.873-2.684l1.488 9.075c1.896-.008 2.92-1.291 3.455-2.653 0 0 1.14-2.95 1.18-3.085.016.126.819 5.738.819 5.738 1.904 0 2.927-1.205 3.478-2.519L63.614 4.1c-1.873 0-2.864 1.283-3.368 2.653ZM38.375.056l-1.543 12.443-.315 1.535c.04 0 .087.007.126.007 1.661-.023 2.841-1.48 3.062-3.313l.89-7.138c.267-2.18-1.032-3.534-2.22-3.534Z"/>
  </g>
  <defs>
    <clipPath id="a">
      <path fill="#fff" d="M0 0h63.614v16H0z"/>
    </clipPath>
  </defs>
</svg>
