<svg id="Layer_1" data-name="Layer 1" xmlns="http://www.w3.org/2000/svg" viewBox="0 0 572 693.29"><defs><style>.cls-1{fill:#fff;}</style></defs><polygon class="cls-1" points="184.04 329.55 334.41 329.55 298.47 278.09 184.04 278.09 183.19 141.4 333.34 141.4 333.13 98.58 99.56 98.58 100.03 141.36 136.06 141.36 136.06 410.31 100.1 410.31 100.1 453.13 183.19 453.13 184.04 329.55"/><path class="cls-1" d="M240.19,193.9l27.92,40.72h63.1a73.75,73.75,0,0,1,34,139.07l23.4,33.52a115,115,0,0,0,39.22-37.71,1.1,1.1,0,0,0,.15-.25,114.39,114.39,0,0,0-96.8-175.35Z"/><path class="cls-1" d="M321.55,382.16H225.47V498.67H188.94v54.42H309V511.87a13.21,13.21,0,0,0-13.2-13.2H272.64V432.58h11.07c19.05,0,29.11,12,35.85,22.64l78.72,113.22c14.94,21.4,19.11,27.36,48.26,27.36H475.9V561.43h-6.74c-15.48,0-25.32-4.17-33.58-16.27Z"/><path class="cls-1" d="M520.62,53.81V640.52H55.37V53.81H520.62M558,16.44H18V677.9H558V16.44Z"/></svg>